<svg id="eV9OFf13gCY1" xmlns="http://www.w3.org/2000/svg" xmlns:xlink="http://www.w3.org/1999/xlink" viewBox="0 0 300 300" shape-rendering="geometricPrecision" text-rendering="geometricPrecision"><line x1="-26.255907" y1="78.505164" x2="26.255908" y2="-78.505164" transform="translate(65.718537 122.089971)" fill="none" stroke="#3f5787" stroke-width="3"/><line x1="0" y1="-78.505164" x2="0" y2="78.505164" transform="matrix(1 0 0 1.00512 91.974445 122.089971)" fill="none" stroke="#3f5787" stroke-width="3"/><line x1="-29.012777" y1="78.505164" x2="29.012778" y2="-78.505164" transform="translate(120.987223 122.089971)" fill="none" stroke="#3f5787" stroke-width="3"/><line x1="-29.012777" y1="0" x2="29.012778" y2="0" transform="matrix(-1.051938 0 0-1 179.012778 43.584807)" fill="none" stroke="#3f5787" stroke-width="3"/><line x1="-29.012777" y1="0" x2="29.012778" y2="0" transform="matrix(-1 0 0 1 237.038333 43.584807)" fill="none" stroke="#3f5787" stroke-width="3"/><line x1="29.012778" y1="-78.505164" x2="-29.012777" y2="78.505164" transform="translate(179.012778 122.089971)" fill="none" stroke="#3f5787" stroke-width="3"/><line x1="0" y1="0" x2="0" y2="0" transform="translate(91.974446 200.595135)" fill="none" stroke="#3f5787" stroke-width="3"/><line x1="-29.012777" y1="0" x2="29.012778" y2="0" transform="matrix(1.050902 0 0 1 120.987224 200.595135)" fill="none" stroke="#3f5787" stroke-width="3"/><line x1="-29.012778" y1="0" x2="29.012778" y2="0" transform="matrix(1.051938 0 0 1 179.012778 200.595135)" fill="none" stroke="#3f5787" stroke-width="3"/><line x1="0" y1="78.505164" x2="0" y2="-78.505164" transform="translate(208.025556 122.089971)" fill="none" stroke="#3f5787" stroke-width="3"/><line x1="25.468231" y1="0" x2="-25.468231" y2="0" transform="translate(233.493786 43.584807)" fill="none" stroke="#3f5787" stroke-width="3"/></svg>
